<svg width="24" height="25" viewBox="0 0 24 25" fill="none" xmlns="http://www.w3.org/2000/svg">
<g clip-path="url(#clip0_48_1411)">
<path d="M7.086 7.55002V19.02H3.228V7.55002H7.086ZM7.34 4.00002C7.34 5.10202 6.503 5.98302 5.157 5.98302H5.133C3.837 5.98402 3 5.10302 3 4.00002C3 2.87702 3.863 2.02002 5.183 2.02002C6.503 2.02002 7.315 2.87602 7.34 4.00002ZM21 12.443V19.02H17.142V12.883C17.142 11.342 16.584 10.29 15.187 10.29C14.121 10.29 13.487 10.999 13.207 11.684C13.105 11.929 13.08 12.271 13.08 12.614V19.02H9.222C9.222 19.02 9.272 8.62602 9.222 7.55002H13.08V9.17402C13.592 8.39402 14.51 7.28002 16.558 7.28002C19.097 7.28002 21 8.92002 21 12.443Z" fill="#181818"/>
</g>
<defs>
<clipPath id="clip0_48_1411">
<rect width="24" height="24" fill="white" transform="translate(0 0.0200195)"/>
</clipPath>
</defs>
</svg>
