<svg width="24" height="25" viewBox="0 0 24 25" fill="none" xmlns="http://www.w3.org/2000/svg">
<g clip-path="url(#clip0_48_1416)">
<path fill-rule="evenodd" clip-rule="evenodd" d="M8.29 20.0194C15.837 20.0194 19.965 13.8634 19.965 8.52436C19.965 8.34936 19.965 8.17436 19.953 8.00236C20.7544 7.43206 21.4477 6.72327 22 5.90936C21.2505 6.237 20.4565 6.45167 19.644 6.54636C20.497 6.04534 21.1383 5.25083 21.448 4.31136C20.6407 4.78237 19.7596 5.1137 18.842 5.29136C18.0892 4.50905 17.0599 4.05266 15.9747 4.01995C14.8895 3.98724 13.8346 4.38081 13.036 5.11636C12.514 5.59699 12.1291 6.20763 11.9205 6.88584C11.712 7.56405 11.6873 8.28548 11.849 8.97636C10.2236 8.89877 8.63217 8.48346 7.17612 7.7569C5.72008 7.03034 4.43133 6.00846 3.392 4.75636C2.86825 5.64572 2.70807 6.70296 2.94488 7.70755C3.18168 8.71215 3.79718 9.58654 4.663 10.1484C4.01087 10.1302 3.37237 9.95742 2.8 9.64436V9.69536C2.801 11.6184 4.178 13.2744 6.092 13.6554C5.48779 13.8179 4.85463 13.8415 4.24 13.7244C4.777 15.3704 6.318 16.4974 8.073 16.5304C6.34657 17.8633 4.16554 18.4645 2 18.2044C3.88279 19.3918 6.06405 20.0201 8.29 20.0164" fill="#181818"/>
</g>
<defs>
<clipPath id="clip0_48_1416">
<rect width="24" height="24" fill="white" transform="translate(0 0.0200195)"/>
</clipPath>
</defs>
</svg>
