<svg width="256" height="162" viewBox="0 0 256 162" fill="none" xmlns="http://www.w3.org/2000/svg">
<g filter="url(#filter0_d_48_1294)">
<path d="M14 48C14 32.9151 14 25.3726 18.6863 20.6863C23.3726 16 30.9151 16 46 16H184C199.085 16 206.627 16 211.314 20.6863C216 25.3726 216 32.9151 216 48V66C216 81.0849 216 88.6274 211.314 93.3137C206.627 98 199.085 98 184 98H46C30.9151 98 23.3726 98 18.6863 93.3137C14 88.6274 14 81.0849 14 66V48Z" fill="#FCFCFF"/>
<path d="M44.8612 41.364C45.3679 40.4533 45.6212 40 45.9999 40C46.3786 40 46.6319 40.4533 47.1386 41.364L47.2692 41.5987C47.4132 41.8573 47.4852 41.9853 47.5972 42.0707C47.7106 42.156 47.8506 42.188 48.1306 42.2507L48.3839 42.3093C49.3679 42.532 49.8599 42.6427 49.9772 43.0187C50.0946 43.396 49.7586 43.788 49.0879 44.572L48.9146 44.7747C48.7239 44.9973 48.6279 45.108 48.5852 45.2467C48.5426 45.3853 48.5572 45.5333 48.5852 45.8307L48.6119 46.1013C48.7132 47.148 48.7639 47.672 48.4586 47.904C48.1519 48.136 47.6906 47.924 46.7692 47.5L46.5319 47.3907C46.2692 47.2707 46.1386 47.2107 45.9999 47.2107C45.8612 47.2107 45.7306 47.2707 45.4679 47.3907L45.2306 47.5C44.3092 47.9253 43.8479 48.136 43.5412 47.904C43.2346 47.672 43.2866 47.148 43.3879 46.1013L43.4146 45.8307C43.4426 45.5333 43.4572 45.3853 43.4146 45.2467C43.3719 45.1093 43.2759 44.9973 43.0852 44.7747L42.9119 44.572C42.2412 43.788 41.9052 43.396 42.0226 43.0187C42.1399 42.6427 42.6319 42.532 43.6159 42.3093L43.8692 42.2507C44.1492 42.188 44.2892 42.1573 44.4026 42.0707C44.5146 41.9853 44.5866 41.8573 44.7306 41.5987L44.8612 41.364Z" stroke="#DC3545" stroke-width="2"/>
<path d="M55.3332 44.0003C55.3332 45.226 55.0918 46.4397 54.6227 47.572C54.1537 48.7044 53.4662 49.7333 52.5995 50.6C51.7328 51.4667 50.7039 52.1542 49.5716 52.6232C48.4392 53.0922 47.2255 53.3337 45.9998 53.3337C44.7742 53.3337 43.5605 53.0922 42.4281 52.6232C41.2958 52.1542 40.2669 51.4667 39.4002 50.6C38.5335 49.7333 37.846 48.7044 37.377 47.572C36.9079 46.4397 36.6665 45.226 36.6665 44.0003C36.6665 41.525 37.6498 39.151 39.4002 37.4007C41.1505 35.6503 43.5245 34.667 45.9998 34.667C48.4752 34.667 50.8492 35.6503 52.5995 37.4007C54.3498 39.151 55.3332 41.525 55.3332 44.0003Z" stroke="#DC3545" stroke-width="2"/>
<path d="M37.2745 48L33.9891 51.4013C33.2691 52.1467 32.9091 52.52 32.7838 52.836C32.4998 53.5547 32.7438 54.3533 33.3611 54.732C33.6331 54.8973 34.1225 54.9493 35.1011 55.0533C35.6545 55.112 35.9305 55.14 36.1611 55.2293C36.419 55.3293 36.6521 55.4841 36.8444 55.683C37.0366 55.8819 37.1833 56.1202 37.2745 56.3813C37.3598 56.6213 37.3878 56.9067 37.4451 57.48C37.5438 58.4933 37.5945 59 37.7545 59.28C38.1198 59.92 38.8918 60.1707 39.5851 59.8773C39.8918 59.7493 40.2518 59.3773 40.9718 58.6307L45.9998 53.424L51.0278 58.6307C51.7478 59.3773 52.1078 59.7493 52.4145 59.8773C53.1078 60.1707 53.8798 59.92 54.2451 59.28C54.4051 59 54.4545 58.4933 54.5545 57.48C54.6118 56.9067 54.6398 56.6213 54.7251 56.3813C54.9171 55.8453 55.3198 55.428 55.8385 55.2293C56.0691 55.14 56.3451 55.112 56.8985 55.0533C57.8771 54.9493 58.3665 54.8973 58.6385 54.732C59.2558 54.3533 59.4998 53.5547 59.2158 52.836C59.0905 52.52 58.7305 52.1467 58.0105 51.4013L54.7251 48" stroke="#DC3545" stroke-width="2"/>
<path d="M70.6928 44.114C70.6928 43.162 70.9121 42.308 71.3508 41.552C71.7988 40.796 72.4008 40.208 73.1568 39.788C73.9221 39.3587 74.7575 39.144 75.6628 39.144C76.6988 39.144 77.6181 39.4007 78.4208 39.914C79.2328 40.418 79.8208 41.1367 80.1848 42.07H78.2668C78.0148 41.5567 77.6648 41.174 77.2168 40.922C76.7688 40.67 76.2508 40.544 75.6628 40.544C75.0188 40.544 74.4448 40.6887 73.9408 40.978C73.4368 41.2673 73.0401 41.6827 72.7508 42.224C72.4708 42.7653 72.3308 43.3953 72.3308 44.114C72.3308 44.8327 72.4708 45.4627 72.7508 46.004C73.0401 46.5453 73.4368 46.9653 73.9408 47.264C74.4448 47.5533 75.0188 47.698 75.6628 47.698C76.2508 47.698 76.7688 47.572 77.2168 47.32C77.6648 47.068 78.0148 46.6853 78.2668 46.172H80.1848C79.8208 47.1053 79.2328 47.824 78.4208 48.328C77.6181 48.832 76.6988 49.084 75.6628 49.084C74.7481 49.084 73.9128 48.874 73.1568 48.454C72.4008 48.0247 71.7988 47.432 71.3508 46.676C70.9121 45.92 70.6928 45.066 70.6928 44.114ZM85.3989 49.126C84.6709 49.126 84.0129 48.9627 83.4249 48.636C82.8369 48.3 82.3749 47.8333 82.0389 47.236C81.7029 46.6293 81.5349 45.9293 81.5349 45.136C81.5349 44.352 81.7076 43.6567 82.0529 43.05C82.3983 42.4433 82.8696 41.9767 83.4669 41.65C84.0643 41.3233 84.7316 41.16 85.4689 41.16C86.2063 41.16 86.8736 41.3233 87.4709 41.65C88.0683 41.9767 88.5396 42.4433 88.8849 43.05C89.2303 43.6567 89.4029 44.352 89.4029 45.136C89.4029 45.92 89.2256 46.6153 88.8709 47.222C88.5163 47.8287 88.0309 48.3 87.4149 48.636C86.8083 48.9627 86.1363 49.126 85.3989 49.126ZM85.3989 47.74C85.8096 47.74 86.1923 47.642 86.5469 47.446C86.9109 47.25 87.2049 46.956 87.4289 46.564C87.6529 46.172 87.7649 45.696 87.7649 45.136C87.7649 44.576 87.6576 44.1047 87.4429 43.722C87.2283 43.33 86.9436 43.036 86.5889 42.84C86.2343 42.644 85.8516 42.546 85.4409 42.546C85.0303 42.546 84.6476 42.644 84.2929 42.84C83.9476 43.036 83.6723 43.33 83.4669 43.722C83.2616 44.1047 83.1589 44.576 83.1589 45.136C83.1589 45.9667 83.3689 46.6107 83.7889 47.068C84.2183 47.516 84.7549 47.74 85.3989 47.74ZM100.319 41.16C100.925 41.16 101.467 41.286 101.943 41.538C102.428 41.79 102.806 42.1633 103.077 42.658C103.357 43.1527 103.497 43.75 103.497 44.45V49H101.915V44.688C101.915 43.9973 101.742 43.47 101.397 43.106C101.051 42.7327 100.58 42.546 99.9827 42.546C99.3853 42.546 98.9093 42.7327 98.5547 43.106C98.2093 43.47 98.0367 43.9973 98.0367 44.688V49H96.4547V44.688C96.4547 43.9973 96.282 43.47 95.9367 43.106C95.5913 42.7327 95.12 42.546 94.5227 42.546C93.9253 42.546 93.4493 42.7327 93.0947 43.106C92.7493 43.47 92.5767 43.9973 92.5767 44.688V49H90.9807V41.286H92.5767V42.168C92.838 41.8507 93.1693 41.6033 93.5707 41.426C93.972 41.2487 94.4013 41.16 94.8587 41.16C95.4747 41.16 96.0253 41.2907 96.5107 41.552C96.996 41.8133 97.3693 42.1913 97.6307 42.686C97.864 42.2193 98.228 41.8507 98.7227 41.58C99.2173 41.3 99.7493 41.16 100.319 41.16ZM107.124 42.42C107.394 42.0653 107.763 41.7667 108.23 41.524C108.696 41.2813 109.224 41.16 109.812 41.16C110.484 41.16 111.095 41.328 111.646 41.664C112.206 41.9907 112.644 42.4527 112.962 43.05C113.279 43.6473 113.438 44.3333 113.438 45.108C113.438 45.8827 113.279 46.578 112.962 47.194C112.644 47.8007 112.206 48.2767 111.646 48.622C111.095 48.958 110.484 49.126 109.812 49.126C109.224 49.126 108.701 49.0093 108.244 48.776C107.786 48.5333 107.413 48.2347 107.124 47.88V52.668H105.528V41.286H107.124V42.42ZM111.814 45.108C111.814 44.576 111.702 44.1187 111.478 43.736C111.263 43.344 110.974 43.05 110.61 42.854C110.255 42.6487 109.872 42.546 109.462 42.546C109.06 42.546 108.678 42.6487 108.314 42.854C107.959 43.0593 107.67 43.358 107.446 43.75C107.231 44.142 107.124 44.604 107.124 45.136C107.124 45.668 107.231 46.1347 107.446 46.536C107.67 46.928 107.959 47.2267 108.314 47.432C108.678 47.6373 109.06 47.74 109.462 47.74C109.872 47.74 110.255 47.6373 110.61 47.432C110.974 47.2173 111.263 46.9093 111.478 46.508C111.702 46.1067 111.814 45.64 111.814 45.108ZM116.612 38.64V49H115.016V38.64H116.612ZM125.777 44.954C125.777 45.2433 125.759 45.5047 125.721 45.738H119.827C119.874 46.354 120.103 46.8487 120.513 47.222C120.924 47.5953 121.428 47.782 122.025 47.782C122.884 47.782 123.491 47.4227 123.845 46.704H125.567C125.334 47.4133 124.909 47.9967 124.293 48.454C123.687 48.902 122.931 49.126 122.025 49.126C121.288 49.126 120.625 48.9627 120.037 48.636C119.459 48.3 119.001 47.8333 118.665 47.236C118.339 46.6293 118.175 45.9293 118.175 45.136C118.175 44.3427 118.334 43.6473 118.651 43.05C118.978 42.4433 119.431 41.9767 120.009 41.65C120.597 41.3233 121.269 41.16 122.025 41.16C122.753 41.16 123.402 41.3187 123.971 41.636C124.541 41.9533 124.984 42.4013 125.301 42.98C125.619 43.5493 125.777 44.2073 125.777 44.954ZM124.111 44.45C124.102 43.862 123.892 43.3907 123.481 43.036C123.071 42.6813 122.562 42.504 121.955 42.504C121.405 42.504 120.933 42.6813 120.541 43.036C120.149 43.3813 119.916 43.8527 119.841 44.45H124.111ZM129.21 42.588V46.858C129.21 47.1473 129.275 47.3573 129.406 47.488C129.546 47.6093 129.779 47.67 130.106 47.67H131.086V49H129.826C129.107 49 128.557 48.832 128.174 48.496C127.791 48.16 127.6 47.614 127.6 46.858V42.588H126.69V41.286H127.6V39.368H129.21V41.286H131.086V42.588H129.21ZM139.627 44.954C139.627 45.2433 139.608 45.5047 139.571 45.738H133.677C133.724 46.354 133.952 46.8487 134.363 47.222C134.774 47.5953 135.278 47.782 135.875 47.782C136.734 47.782 137.34 47.4227 137.695 46.704H139.417C139.184 47.4133 138.759 47.9967 138.143 48.454C137.536 48.902 136.78 49.126 135.875 49.126C135.138 49.126 134.475 48.9627 133.887 48.636C133.308 48.3 132.851 47.8333 132.515 47.236C132.188 46.6293 132.025 45.9293 132.025 45.136C132.025 44.3427 132.184 43.6473 132.501 43.05C132.828 42.4433 133.28 41.9767 133.859 41.65C134.447 41.3233 135.119 41.16 135.875 41.16C136.603 41.16 137.252 41.3187 137.821 41.636C138.39 41.9533 138.834 42.4013 139.151 42.98C139.468 43.5493 139.627 44.2073 139.627 44.954ZM137.961 44.45C137.952 43.862 137.742 43.3907 137.331 43.036C136.92 42.6813 136.412 42.504 135.805 42.504C135.254 42.504 134.783 42.6813 134.391 43.036C133.999 43.3813 133.766 43.8527 133.691 44.45H137.961ZM151.638 42.168C151.638 42.6627 151.522 43.1293 151.288 43.568C151.055 44.0067 150.682 44.366 150.168 44.646C149.655 44.9167 148.997 45.052 148.194 45.052H146.43V49H144.834V39.27H148.194C148.941 39.27 149.571 39.4007 150.084 39.662C150.607 39.914 150.994 40.2593 151.246 40.698C151.508 41.1367 151.638 41.6267 151.638 42.168ZM148.194 43.75C148.801 43.75 149.254 43.6147 149.552 43.344C149.851 43.064 150 42.672 150 42.168C150 41.104 149.398 40.572 148.194 40.572H146.43V43.75H148.194ZM154.756 42.406C154.99 42.014 155.298 41.7107 155.68 41.496C156.072 41.272 156.534 41.16 157.066 41.16V42.812H156.66C156.035 42.812 155.559 42.9707 155.232 43.288C154.915 43.6053 154.756 44.156 154.756 44.94V49H153.16V41.286H154.756V42.406ZM161.879 49.126C161.151 49.126 160.493 48.9627 159.905 48.636C159.317 48.3 158.855 47.8333 158.519 47.236C158.183 46.6293 158.015 45.9293 158.015 45.136C158.015 44.352 158.188 43.6567 158.533 43.05C158.879 42.4433 159.35 41.9767 159.947 41.65C160.545 41.3233 161.212 41.16 161.949 41.16C162.687 41.16 163.354 41.3233 163.951 41.65C164.549 41.9767 165.02 42.4433 165.365 43.05C165.711 43.6567 165.883 44.352 165.883 45.136C165.883 45.92 165.706 46.6153 165.351 47.222C164.997 47.8287 164.511 48.3 163.895 48.636C163.289 48.9627 162.617 49.126 161.879 49.126ZM161.879 47.74C162.29 47.74 162.673 47.642 163.027 47.446C163.391 47.25 163.685 46.956 163.909 46.564C164.133 46.172 164.245 45.696 164.245 45.136C164.245 44.576 164.138 44.1047 163.923 43.722C163.709 43.33 163.424 43.036 163.069 42.84C162.715 42.644 162.332 42.546 161.921 42.546C161.511 42.546 161.128 42.644 160.773 42.84C160.428 43.036 160.153 43.33 159.947 43.722C159.742 44.1047 159.639 44.576 159.639 45.136C159.639 45.9667 159.849 46.6107 160.269 47.068C160.699 47.516 161.235 47.74 161.879 47.74ZM168.273 40.264C167.984 40.264 167.741 40.166 167.545 39.97C167.349 39.774 167.251 39.5313 167.251 39.242C167.251 38.9527 167.349 38.71 167.545 38.514C167.741 38.318 167.984 38.22 168.273 38.22C168.553 38.22 168.791 38.318 168.987 38.514C169.183 38.71 169.281 38.9527 169.281 39.242C169.281 39.5313 169.183 39.774 168.987 39.97C168.791 40.166 168.553 40.264 168.273 40.264ZM169.057 50.512C169.057 51.268 168.866 51.814 168.483 52.15C168.11 52.4953 167.564 52.668 166.845 52.668H166.019V51.324H166.565C166.892 51.324 167.12 51.2587 167.251 51.128C167.391 51.0067 167.461 50.8013 167.461 50.512V41.286H169.057V50.512ZM178.223 44.954C178.223 45.2433 178.204 45.5047 178.167 45.738H172.273C172.319 46.354 172.548 46.8487 172.959 47.222C173.369 47.5953 173.873 47.782 174.471 47.782C175.329 47.782 175.936 47.4227 176.291 46.704H178.013C177.779 47.4133 177.355 47.9967 176.739 48.454C176.132 48.902 175.376 49.126 174.471 49.126C173.733 49.126 173.071 48.9627 172.483 48.636C171.904 48.3 171.447 47.8333 171.111 47.236C170.784 46.6293 170.621 45.9293 170.621 45.136C170.621 44.3427 170.779 43.6473 171.097 43.05C171.423 42.4433 171.876 41.9767 172.455 41.65C173.043 41.3233 173.715 41.16 174.471 41.16C175.199 41.16 175.847 41.3187 176.417 41.636C176.986 41.9533 177.429 42.4013 177.747 42.98C178.064 43.5493 178.223 44.2073 178.223 44.954ZM176.557 44.45C176.547 43.862 176.337 43.3907 175.927 43.036C175.516 42.6813 175.007 42.504 174.401 42.504C173.85 42.504 173.379 42.6813 172.987 43.036C172.595 43.3813 172.361 43.8527 172.287 44.45H176.557ZM179.261 45.136C179.261 44.3427 179.42 43.6473 179.737 43.05C180.064 42.4433 180.512 41.9767 181.081 41.65C181.65 41.3233 182.304 41.16 183.041 41.16C183.974 41.16 184.744 41.384 185.351 41.832C185.967 42.2707 186.382 42.9007 186.597 43.722H184.875C184.735 43.3393 184.511 43.0407 184.203 42.826C183.895 42.6113 183.508 42.504 183.041 42.504C182.388 42.504 181.865 42.7373 181.473 43.204C181.09 43.6613 180.899 44.3053 180.899 45.136C180.899 45.9667 181.09 46.6153 181.473 47.082C181.865 47.5487 182.388 47.782 183.041 47.782C183.965 47.782 184.576 47.376 184.875 46.564H186.597C186.373 47.348 185.953 47.9733 185.337 48.44C184.721 48.8973 183.956 49.126 183.041 49.126C182.304 49.126 181.65 48.9627 181.081 48.636C180.512 48.3 180.064 47.8333 179.737 47.236C179.42 46.6293 179.261 45.9293 179.261 45.136ZM190.05 42.588V46.858C190.05 47.1473 190.115 47.3573 190.246 47.488C190.386 47.6093 190.619 47.67 190.946 47.67H191.926V49H190.666C189.947 49 189.396 48.832 189.014 48.496C188.631 48.16 188.44 47.614 188.44 46.858V42.588H187.53V41.286H188.44V39.368H190.05V41.286H191.926V42.588H190.05ZM196.197 49.126C195.59 49.126 195.044 49.0187 194.559 48.804C194.083 48.58 193.705 48.2813 193.425 47.908C193.145 47.5253 192.995 47.1007 192.977 46.634H194.629C194.657 46.9607 194.811 47.236 195.091 47.46C195.38 47.6747 195.739 47.782 196.169 47.782C196.617 47.782 196.962 47.698 197.205 47.53C197.457 47.3527 197.583 47.1287 197.583 46.858C197.583 46.5687 197.443 46.354 197.163 46.214C196.892 46.074 196.458 45.92 195.861 45.752C195.282 45.5933 194.811 45.4393 194.447 45.29C194.083 45.1407 193.765 44.912 193.495 44.604C193.233 44.296 193.103 43.89 193.103 43.386C193.103 42.9753 193.224 42.602 193.467 42.266C193.709 41.9207 194.055 41.65 194.503 41.454C194.96 41.258 195.483 41.16 196.071 41.16C196.948 41.16 197.653 41.384 198.185 41.832C198.726 42.2707 199.015 42.8727 199.053 43.638H197.457C197.429 43.2927 197.289 43.0173 197.037 42.812C196.785 42.6067 196.444 42.504 196.015 42.504C195.595 42.504 195.273 42.5833 195.049 42.742C194.825 42.9007 194.713 43.1107 194.713 43.372C194.713 43.5773 194.787 43.75 194.937 43.89C195.086 44.03 195.268 44.142 195.483 44.226C195.697 44.3007 196.015 44.3987 196.435 44.52C196.995 44.6693 197.452 44.8233 197.807 44.982C198.171 45.1313 198.483 45.3553 198.745 45.654C199.006 45.9527 199.141 46.3493 199.151 46.844C199.151 47.2827 199.029 47.6747 198.787 48.02C198.544 48.3653 198.199 48.636 197.751 48.832C197.312 49.028 196.794 49.126 196.197 49.126Z" fill="#4F5057"/>
<path d="M71.3409 66.408C71.3943 65.3413 71.7676 64.52 72.4609 63.944C73.1649 63.3573 74.0876 63.064 75.2289 63.064C76.0076 63.064 76.6743 63.2027 77.2289 63.48C77.7836 63.7467 78.1996 64.1147 78.4769 64.584C78.7649 65.0427 78.9089 65.5653 78.9089 66.152C78.9089 66.824 78.7329 67.3947 78.3809 67.864C78.0396 68.3227 77.6289 68.632 77.1489 68.792V68.856C77.7676 69.048 78.2476 69.3893 78.5889 69.88C78.9409 70.3707 79.1169 71 79.1169 71.768C79.1169 72.408 78.9676 72.9787 78.6689 73.48C78.3809 73.9813 77.9489 74.376 77.3729 74.664C76.8076 74.9413 76.1249 75.08 75.3249 75.08C74.1196 75.08 73.1383 74.776 72.3809 74.168C71.6236 73.56 71.2236 72.664 71.1809 71.48H73.3569C73.3783 72.0027 73.5543 72.424 73.8849 72.744C74.2263 73.0533 74.6903 73.208 75.2769 73.208C75.8209 73.208 76.2369 73.0587 76.5249 72.76C76.8236 72.4507 76.9729 72.056 76.9729 71.576C76.9729 70.936 76.7703 70.4773 76.3649 70.2C75.9596 69.9227 75.3303 69.784 74.4769 69.784H74.0129V67.944H74.4769C75.9916 67.944 76.7489 67.4373 76.7489 66.424C76.7489 65.9653 76.6103 65.608 76.3329 65.352C76.0663 65.096 75.6769 64.968 75.1649 64.968C74.6636 64.968 74.2743 65.1067 73.9969 65.384C73.7303 65.6507 73.5756 65.992 73.5329 66.408H71.3409ZM80.7911 72.728V70.968L86.0231 63.48H88.6311V70.776H90.0391V72.728H88.6311V75H86.3911V72.728H80.7911ZM86.5351 65.88L83.2551 70.776H86.5351V65.88ZM91.4972 66.408C91.5505 65.3413 91.9239 64.52 92.6172 63.944C93.3212 63.3573 94.2439 63.064 95.3852 63.064C96.1639 63.064 96.8305 63.2027 97.3852 63.48C97.9399 63.7467 98.3559 64.1147 98.6332 64.584C98.9212 65.0427 99.0652 65.5653 99.0652 66.152C99.0652 66.824 98.8892 67.3947 98.5372 67.864C98.1959 68.3227 97.7852 68.632 97.3052 68.792V68.856C97.9239 69.048 98.4039 69.3893 98.7452 69.88C99.0972 70.3707 99.2732 71 99.2732 71.768C99.2732 72.408 99.1239 72.9787 98.8252 73.48C98.5372 73.9813 98.1052 74.376 97.5292 74.664C96.9639 74.9413 96.2812 75.08 95.4812 75.08C94.2759 75.08 93.2945 74.776 92.5372 74.168C91.7799 73.56 91.3799 72.664 91.3372 71.48H93.5132C93.5345 72.0027 93.7105 72.424 94.0412 72.744C94.3825 73.0533 94.8465 73.208 95.4332 73.208C95.9772 73.208 96.3932 73.0587 96.6812 72.76C96.9799 72.4507 97.1292 72.056 97.1292 71.576C97.1292 70.936 96.9265 70.4773 96.5212 70.2C96.1159 69.9227 95.4865 69.784 94.6332 69.784H94.1692V67.944H94.6332C96.1479 67.944 96.9052 67.4373 96.9052 66.424C96.9052 65.9653 96.7665 65.608 96.4892 65.352C96.2225 65.096 95.8332 64.968 95.3212 64.968C94.8199 64.968 94.4305 65.1067 94.1532 65.384C93.8865 65.6507 93.7319 65.992 93.6892 66.408H91.4972ZM101.043 69.016C101.043 67.1707 101.374 65.7253 102.035 64.68C102.707 63.6347 103.817 63.112 105.363 63.112C106.91 63.112 108.014 63.6347 108.675 64.68C109.347 65.7253 109.683 67.1707 109.683 69.016C109.683 70.872 109.347 72.328 108.675 73.384C108.014 74.44 106.91 74.968 105.363 74.968C103.817 74.968 102.707 74.44 102.035 73.384C101.374 72.328 101.043 70.872 101.043 69.016ZM107.475 69.016C107.475 68.2267 107.422 67.5653 107.315 67.032C107.219 66.488 107.017 66.0453 106.707 65.704C106.409 65.3627 105.961 65.192 105.363 65.192C104.766 65.192 104.313 65.3627 104.003 65.704C103.705 66.0453 103.502 66.488 103.395 67.032C103.299 67.5653 103.251 68.2267 103.251 69.016C103.251 69.8267 103.299 70.5093 103.395 71.064C103.491 71.608 103.694 72.0507 104.003 72.392C104.313 72.7227 104.766 72.888 105.363 72.888C105.961 72.888 106.414 72.7227 106.723 72.392C107.033 72.0507 107.235 71.608 107.331 71.064C107.427 70.5093 107.475 69.8267 107.475 69.016Z" fill="#181818"/>
</g>
<defs>
<filter id="filter0_d_48_1294" x="-26" y="0" width="282" height="162" filterUnits="userSpaceOnUse" color-interpolation-filters="sRGB">
<feFlood flood-opacity="0" result="BackgroundImageFix"/>
<feColorMatrix in="SourceAlpha" type="matrix" values="0 0 0 0 0 0 0 0 0 0 0 0 0 0 0 0 0 0 127 0" result="hardAlpha"/>
<feOffset dy="24"/>
<feGaussianBlur stdDeviation="20"/>
<feColorMatrix type="matrix" values="0 0 0 0 0.0145139 0 0 0 0 0.0700113 0 0 0 0 0.316667 0 0 0 0.08 0"/>
<feBlend mode="normal" in2="BackgroundImageFix" result="effect1_dropShadow_48_1294"/>
<feBlend mode="normal" in="SourceGraphic" in2="effect1_dropShadow_48_1294" result="shape"/>
</filter>
</defs>
</svg>
