<svg width="240" height="194" viewBox="0 0 240 194" fill="none" xmlns="http://www.w3.org/2000/svg">
<g filter="url(#filter0_d_48_1236)">
<path d="M40 48C40 32.9151 40 25.3726 44.6863 20.6863C49.3726 16 56.9151 16 72 16H168C183.085 16 190.627 16 195.314 20.6863C200 25.3726 200 32.9151 200 48V98C200 113.085 200 120.627 195.314 125.314C190.627 130 183.085 130 168 130H72C56.9151 130 49.3726 130 44.6863 125.314C40 120.627 40 113.085 40 98V48Z" fill="#FCFCFF"/>
<path d="M61.1397 51.112C60.361 51.112 59.657 50.9787 59.0277 50.712C58.409 50.4453 57.9184 50.0613 57.5557 49.56C57.193 49.0587 57.0064 48.4667 56.9957 47.784H59.3957C59.4277 48.2427 59.5877 48.6053 59.8757 48.872C60.1744 49.1387 60.5797 49.272 61.0917 49.272C61.6144 49.272 62.025 49.1493 62.3237 48.904C62.6224 48.648 62.7717 48.3173 62.7717 47.912C62.7717 47.5813 62.6704 47.3093 62.4677 47.096C62.265 46.8827 62.009 46.7173 61.6997 46.6C61.401 46.472 60.985 46.3333 60.4517 46.184C59.7264 45.9707 59.1344 45.7627 58.6757 45.56C58.2277 45.3467 57.8384 45.032 57.5077 44.616C57.1877 44.1893 57.0277 43.624 57.0277 42.92C57.0277 42.2587 57.193 41.6827 57.5237 41.192C57.8544 40.7013 58.3184 40.328 58.9157 40.072C59.513 39.8053 60.1957 39.672 60.9637 39.672C62.1157 39.672 63.049 39.9547 63.7637 40.52C64.489 41.0747 64.889 41.8533 64.9637 42.856H62.4997C62.4784 42.472 62.313 42.1573 62.0037 41.912C61.705 41.656 61.305 41.528 60.8037 41.528C60.3664 41.528 60.0144 41.64 59.7477 41.864C59.4917 42.088 59.3637 42.4133 59.3637 42.84C59.3637 43.1387 59.4597 43.3893 59.6517 43.592C59.8544 43.784 60.0997 43.944 60.3877 44.072C60.6864 44.1893 61.1024 44.328 61.6357 44.488C62.361 44.7013 62.953 44.9147 63.4117 45.128C63.8704 45.3413 64.265 45.6613 64.5957 46.088C64.9264 46.5147 65.0917 47.0747 65.0917 47.768C65.0917 48.3653 64.937 48.92 64.6277 49.432C64.3184 49.944 63.865 50.3547 63.2677 50.664C62.6704 50.9627 61.961 51.112 61.1397 51.112ZM66.4577 46.536C66.4577 45.64 66.6337 44.8453 66.9857 44.152C67.3484 43.4587 67.8337 42.9253 68.4417 42.552C69.0604 42.1787 69.7484 41.992 70.5057 41.992C71.167 41.992 71.743 42.1253 72.2337 42.392C72.735 42.6587 73.135 42.9947 73.4337 43.4V42.136H75.6897V51H73.4337V49.704C73.1457 50.12 72.7457 50.4667 72.2337 50.744C71.7324 51.0107 71.151 51.144 70.4897 51.144C69.743 51.144 69.0604 50.952 68.4417 50.568C67.8337 50.184 67.3484 49.6453 66.9857 48.952C66.6337 48.248 66.4577 47.4427 66.4577 46.536ZM73.4337 46.568C73.4337 46.024 73.327 45.56 73.1137 45.176C72.9004 44.7813 72.6124 44.4827 72.2497 44.28C71.887 44.0667 71.4977 43.96 71.0817 43.96C70.6657 43.96 70.2817 44.0613 69.9297 44.264C69.5777 44.4667 69.2897 44.7653 69.0657 45.16C68.8524 45.544 68.7457 46.0027 68.7457 46.536C68.7457 47.0693 68.8524 47.5387 69.0657 47.944C69.2897 48.3387 69.5777 48.6427 69.9297 48.856C70.2924 49.0693 70.6764 49.176 71.0817 49.176C71.4977 49.176 71.887 49.0747 72.2497 48.872C72.6124 48.6587 72.9004 48.36 73.1137 47.976C73.327 47.5813 73.4337 47.112 73.4337 46.568ZM80.1174 39.16V51H77.8774V39.16H80.1174ZM90.5706 46.376C90.5706 46.696 90.5492 46.984 90.5066 47.24H84.0266C84.0799 47.88 84.3039 48.3813 84.6986 48.744C85.0932 49.1067 85.5786 49.288 86.1546 49.288C86.9866 49.288 87.5786 48.9307 87.9306 48.216H90.3466C90.0906 49.0693 89.5999 49.7733 88.8746 50.328C88.1492 50.872 87.2586 51.144 86.2026 51.144C85.3492 51.144 84.5812 50.9573 83.8986 50.584C83.2266 50.2 82.6986 49.6613 82.3146 48.968C81.9412 48.2747 81.7546 47.4747 81.7546 46.568C81.7546 45.6507 81.9412 44.8453 82.3146 44.152C82.6879 43.4587 83.2106 42.9253 83.8826 42.552C84.5546 42.1787 85.3279 41.992 86.2026 41.992C87.0452 41.992 87.7972 42.1733 88.4586 42.536C89.1306 42.8987 89.6479 43.416 90.0106 44.088C90.3839 44.7493 90.5706 45.512 90.5706 46.376ZM88.2506 45.736C88.2399 45.16 88.0319 44.7013 87.6266 44.36C87.2212 44.008 86.7252 43.832 86.1386 43.832C85.5839 43.832 85.1146 44.0027 84.7306 44.344C84.3572 44.6747 84.1279 45.1387 84.0426 45.736H88.2506ZM95.5976 51.144C94.8722 51.144 94.2216 51.016 93.6456 50.76C93.0696 50.4933 92.6109 50.136 92.2696 49.688C91.9389 49.24 91.7576 48.744 91.7256 48.2H93.9816C94.0242 48.5413 94.1896 48.824 94.4776 49.048C94.7762 49.272 95.1442 49.384 95.5816 49.384C96.0082 49.384 96.3389 49.2987 96.5736 49.128C96.8189 48.9573 96.9416 48.7387 96.9416 48.472C96.9416 48.184 96.7922 47.9707 96.4936 47.832C96.2056 47.6827 95.7416 47.5227 95.1016 47.352C94.4402 47.192 93.8962 47.0267 93.4696 46.856C93.0536 46.6853 92.6909 46.424 92.3816 46.072C92.0829 45.72 91.9336 45.2453 91.9336 44.648C91.9336 44.1573 92.0722 43.7093 92.3496 43.304C92.6376 42.8987 93.0429 42.5787 93.5656 42.344C94.0989 42.1093 94.7229 41.992 95.4376 41.992C96.4936 41.992 97.3362 42.2587 97.9656 42.792C98.5949 43.3147 98.9416 44.024 99.0056 44.92H96.8616C96.8296 44.568 96.6802 44.2907 96.4136 44.088C96.1576 43.8747 95.8109 43.768 95.3736 43.768C94.9682 43.768 94.6536 43.8427 94.4296 43.992C94.2162 44.1413 94.1096 44.3493 94.1096 44.616C94.1096 44.9147 94.2589 45.144 94.5576 45.304C94.8562 45.4533 95.3202 45.608 95.9496 45.768C96.5896 45.928 97.1176 46.0933 97.5336 46.264C97.9496 46.4347 98.3069 46.7013 98.6056 47.064C98.9149 47.416 99.0749 47.8853 99.0856 48.472C99.0856 48.984 98.9416 49.4427 98.6536 49.848C98.3762 50.2533 97.9709 50.5733 97.4376 50.808C96.9149 51.032 96.3016 51.144 95.5976 51.144Z" fill="#181818"/>
<path d="M56 69.8095C56 67.7056 57.7056 66 59.8095 66C62.1239 66 64 67.8761 64 70.1905V114H56V69.8095Z" fill="#FF8126"/>
<path d="M68 85.8095C68 83.7056 69.7056 82 71.8095 82C74.1239 82 76 83.8761 76 86.1905V114H68V85.8095Z" fill="#FF8126"/>
<path d="M80 73.8095C80 71.7056 81.7056 70 83.8095 70C86.1239 70 88 71.8761 88 74.1905V114H80V73.8095Z" fill="#FF8126"/>
<path d="M104 69.8095C104 67.7056 105.706 66 107.81 66C110.124 66 112 67.8761 112 70.1905V114H104V69.8095Z" fill="#FF8126"/>
<path d="M116 85.8095C116 83.7056 117.706 82 119.81 82C122.124 82 124 83.8761 124 86.1905V114H116V85.8095Z" fill="#FF8126"/>
<path d="M128 73.8095C128 71.7056 129.706 70 131.81 70C134.124 70 136 71.8761 136 74.1905V114H128V73.8095Z" fill="#FF8126"/>
<path d="M152 69.8095C152 67.7056 153.706 66 155.81 66C158.124 66 160 67.8761 160 70.1905V114H152V69.8095Z" fill="#FF8126"/>
<path d="M164 85.8095C164 83.7056 165.706 82 167.81 82C170.124 82 172 83.8761 172 86.1905V114H164V85.8095Z" fill="#FF8126"/>
<path d="M176 73.8095C176 71.7056 177.706 70 179.81 70C182.124 70 184 71.8761 184 74.1905V114H176V73.8095Z" fill="#FF8126"/>
</g>
<defs>
<filter id="filter0_d_48_1236" x="0" y="0" width="240" height="194" filterUnits="userSpaceOnUse" color-interpolation-filters="sRGB">
<feFlood flood-opacity="0" result="BackgroundImageFix"/>
<feColorMatrix in="SourceAlpha" type="matrix" values="0 0 0 0 0 0 0 0 0 0 0 0 0 0 0 0 0 0 127 0" result="hardAlpha"/>
<feOffset dy="24"/>
<feGaussianBlur stdDeviation="20"/>
<feColorMatrix type="matrix" values="0 0 0 0 0.0145139 0 0 0 0 0.0700113 0 0 0 0 0.316667 0 0 0 0.08 0"/>
<feBlend mode="normal" in2="BackgroundImageFix" result="effect1_dropShadow_48_1236"/>
<feBlend mode="normal" in="SourceGraphic" in2="effect1_dropShadow_48_1236" result="shape"/>
</filter>
</defs>
</svg>
