<svg width="49" height="48" viewBox="0 0 49 48" fill="none" xmlns="http://www.w3.org/2000/svg">
<path d="M0.333496 8C0.333496 3.58172 3.91522 0 8.3335 0H40.3335C44.7518 0 48.3335 3.58172 48.3335 8V40C48.3335 44.4183 44.7518 48 40.3335 48H8.3335C3.91522 48 0.333496 44.4183 0.333496 40V8Z" fill="#F7F7F7"/>
<path d="M19.0003 12C16.525 12 14.151 12.9833 12.4007 14.7337C10.6503 16.484 9.66699 18.858 9.66699 21.3333C9.66699 23.8087 10.6503 26.1827 12.4007 27.933C14.151 29.6833 16.525 30.6667 19.0003 30.6667H20.427C20.2994 29.7824 20.2994 28.8843 20.427 28H19.0003C17.2322 28 15.5365 27.2976 14.2863 26.0474C13.036 24.7971 12.3337 23.1014 12.3337 21.3333C12.3337 19.5652 13.036 17.8695 14.2863 16.6193C15.5365 15.369 17.2322 14.6667 19.0003 14.6667H29.667C30.6557 14.6665 31.632 14.8862 32.5253 15.3099C33.4186 15.7336 34.2065 16.3507 34.8319 17.1164C35.4573 17.8822 35.9045 18.7775 36.1412 19.7374C36.3779 20.6974 36.3981 21.698 36.2003 22.6667C36.9863 23.4365 37.63 24.3393 38.1017 25.3333C38.7765 23.9106 39.0805 22.3402 38.9851 20.7684C38.8898 19.1966 38.3984 17.6744 37.5565 16.3436C36.7147 15.0129 35.5498 13.9167 34.1703 13.1572C32.7909 12.3978 31.2417 11.9997 29.667 12H19.0003ZM23.0003 29.3333C23.0006 28.2939 23.2439 27.2689 23.7108 26.3402C24.1777 25.4115 24.8554 24.6049 25.6895 23.9848C26.5237 23.3646 27.4914 22.9481 28.5152 22.7685C29.539 22.5889 30.5906 22.6512 31.5861 22.9505C32.5815 23.2497 33.4932 23.7775 34.2484 24.4918C35.0035 25.2062 35.5811 26.0872 35.9351 27.0645C36.2891 28.0418 36.4097 29.0883 36.2872 30.1205C36.1647 31.1528 35.8026 32.142 35.2297 33.0093L38.6097 36.3907L36.7243 38.276L33.343 34.896C32.3381 35.5602 31.1721 35.9397 29.9688 35.9942C28.7656 36.0488 27.57 35.7763 26.5092 35.2057C25.4484 34.6352 24.5619 33.7879 23.9441 32.7539C23.3263 31.7199 23.0001 30.5378 23.0003 29.3333Z" fill="#181818"/>
</svg>
