<svg width="49" height="48" viewBox="0 0 49 48" fill="none" xmlns="http://www.w3.org/2000/svg">
<path d="M0.666992 8C0.666992 3.58172 4.24871 0 8.66699 0H40.667C45.0853 0 48.667 3.58172 48.667 8V40C48.667 44.4183 45.0853 48 40.667 48H8.66699C4.24872 48 0.666992 44.4183 0.666992 40V8Z" fill="#F7F7F7"/>
<path d="M29.9835 28.8422C27.0629 26.7995 23.9398 25.6684 20.3608 25.5671C20.3439 25.9048 20.327 26.2087 20.327 26.4956C20.327 28.1332 20.327 29.7539 20.327 31.3914C20.327 32.2693 19.8375 32.8264 19.1284 32.8264C18.4025 32.8264 17.9467 32.2693 17.9467 31.3745C17.9298 29.4669 17.9467 27.5592 17.9467 25.5671C17.2207 25.5671 16.5455 25.5671 15.8364 25.5671C15.8364 23.1868 15.8364 20.9077 15.8364 18.4598C20.8673 18.7637 25.763 18.4429 30.0004 14.999C29.9835 19.6922 29.9835 24.1997 29.9835 28.8422Z" fill="#181818"/>
<path d="M14.857 18.5762C14.857 20.8721 14.857 23.1174 14.857 25.3627C13.4051 25.5653 11.9364 24.2148 11.7 22.5434C11.4299 20.5176 12.7467 18.8125 14.857 18.5762Z" fill="#181818"/>
<path d="M30.9443 23.3903C30.9443 22.3774 30.9443 21.4658 30.9443 20.4697C31.7547 20.3516 32.4975 20.3178 33.0546 21.0437C33.4598 21.5502 33.4766 22.1242 33.1559 22.6813C32.6663 23.5591 31.8391 23.4579 30.9443 23.3903Z" fill="#181818"/>
<path d="M34.7598 22.2752C34.7598 21.9882 34.7598 21.7518 34.7598 21.4648C35.6883 21.4648 36.5999 21.4648 37.5791 21.4648C37.5791 21.7181 37.5791 21.9882 37.5791 22.2752C36.6337 22.2752 35.722 22.2752 34.7598 22.2752Z" fill="#181818"/>
<path d="M35.1646 18.9833C34.9958 18.7132 34.8776 18.5106 34.6919 18.2067C35.536 17.7172 36.3294 17.2445 37.1904 16.7549C37.3424 17.0081 37.4774 17.2107 37.6462 17.4977C36.819 18.0041 36.0425 18.4768 35.1646 18.9833Z" fill="#181818"/>
<path d="M34.7446 25.4998C34.8797 25.2297 34.981 25.0102 35.1498 24.6895C35.9939 25.179 36.8042 25.6348 37.6652 26.1244C37.4964 26.3945 37.3782 26.5971 37.2094 26.8841C36.3653 26.4283 35.5718 25.9725 34.7446 25.4998Z" fill="#181818"/>
</svg>
