<svg width="49" height="48" viewBox="0 0 49 48" fill="none" xmlns="http://www.w3.org/2000/svg">
<path d="M0.333496 8C0.333496 3.58172 3.91522 0 8.3335 0H40.3335C44.7518 0 48.3335 3.58172 48.3335 8V40C48.3335 44.4183 44.7518 48 40.3335 48H8.3335C3.91522 48 0.333496 44.4183 0.333496 40V8Z" fill="#F7F7F7"/>
<path d="M35.3335 12H14.0335C12.5335 12 11.3335 13.2 11.3335 14.7V29.4C11.3335 30.8 12.5335 32 14.0335 32H22.0335L19.3335 34.7V36H30.0335V34.7L27.3335 32H35.3335C36.8335 32 38.0335 30.8 38.0335 29.3V14.7C38.0335 13.2 36.8335 12 35.3335 12ZM18.4335 24.9C17.6335 25 16.7335 24.3 16.5335 23.3V23.2C16.3335 21.9 17.1335 20.9 18.4335 20.8V24.9ZM27.6335 23.3V27C25.8335 25.8 23.9335 25.1 21.7335 25C21.7335 25.2 21.7335 25.4 21.7335 25.6V28.6C21.7335 29.1 21.4335 29.5 21.0335 29.5C20.6335 29.5 20.3335 29.1 20.3335 28.5C20.3335 27.3 20.3335 26.2 20.3335 25H19.0335V20.7C22.1335 20.9 25.1335 20.7 27.6335 18.6C27.6335 20.2 27.6335 21.8 27.6335 23.3ZM29.6335 23.2C29.5335 23.3 29.5335 23.3 29.6335 23.2C29.2335 23.7 28.8335 23.7 28.2335 23.6V21.9C28.7335 21.8 29.2335 21.8 29.5335 22.3C29.8335 22.6 29.8335 22.9 29.6335 23.2ZM32.0335 19.6C32.1335 19.8 32.2335 19.9 32.3335 20.1C31.8335 20.4 31.3335 20.7 30.8335 21C30.7335 20.8 30.6335 20.7 30.5335 20.5C31.0335 20.2 31.5335 19.9 32.0335 19.6ZM32.3335 22.5V23H30.6335V22.5H32.3335ZM32.0335 25.8C31.5335 25.5 31.0335 25.2 30.5335 25C30.6335 24.8 30.6335 24.7 30.7335 24.5C31.2335 24.8 31.7335 25.1 32.2335 25.4C32.2335 25.5 32.1335 25.6 32.0335 25.8Z" fill="#181818"/>
</svg>
