<svg width="48" height="48" viewBox="0 0 48 48" fill="none" xmlns="http://www.w3.org/2000/svg">
<path d="M0 8C0 3.58172 3.58172 0 8 0H40C44.4183 0 48 3.58172 48 8V40C48 44.4183 44.4183 48 40 48H8C3.58172 48 0 44.4183 0 40V8Z" fill="#F7F7F7"/>
<path d="M24.1381 16.8612L20.2056 20.0463C19.5516 20.5744 19.4256 21.525 19.9213 22.2034C20.4453 22.9266 21.465 23.0688 22.1678 22.5203L26.2019 19.3841C26.4862 19.1647 26.8925 19.2134 27.1159 19.4978C27.3394 19.7822 27.2866 20.1884 27.0022 20.4119L26.1531 21.07L33.3519 27.7H35.05C36.1266 27.7 37 26.8266 37 25.75V20.55C37 19.4734 36.1266 18.6 35.05 18.6H31.7716L31.6131 18.4984L28.6637 16.6094C28.0422 16.2113 27.315 16 26.5756 16C25.69 16 24.8287 16.3047 24.1381 16.8612ZM25.0644 21.915L22.9641 23.5481C21.6844 24.5475 19.8278 24.2875 18.8691 22.9713C17.9672 21.7322 18.1947 20.0016 19.385 19.0388L22.765 16.3047C22.2937 16.1056 21.7859 16.0041 21.27 16.0041C20.5062 16 19.7628 16.2275 19.125 16.65L16.2 18.6H12.95C11.8734 18.6 11 19.4734 11 20.55V25.75C11 26.8266 11.8734 27.7 12.95 27.7H17.3456L21.0588 31.0881C21.855 31.8153 23.0859 31.7584 23.8131 30.9622C24.0366 30.7144 24.1869 30.4259 24.2641 30.1253L24.9547 30.7591C25.7469 31.4862 26.9819 31.4334 27.7091 30.6413C27.8919 30.4422 28.0259 30.2106 28.1112 29.9709C28.8994 30.4991 29.9719 30.3894 30.6341 29.6663C31.3612 28.8741 31.3084 27.6391 30.5162 26.9119L25.0644 21.915Z" fill="#181818"/>
</svg>
