<svg width="49" height="48" viewBox="0 0 49 48" fill="none" xmlns="http://www.w3.org/2000/svg">
<path d="M0.666992 8C0.666992 3.58172 4.24871 0 8.66699 0H40.667C45.0853 0 48.667 3.58172 48.667 8V40C48.667 44.4183 45.0853 48 40.667 48H8.66699C4.24872 48 0.666992 44.4183 0.666992 40V8Z" fill="#F7F7F7"/>
<g clip-path="url(#clip0_2159_1224)">
<path d="M35.667 12H14.367C12.867 12 11.667 13.2 11.667 14.7V29.4C11.667 30.8 12.867 32 14.367 32H22.367L19.667 34.7V36H30.367V34.7L27.667 32H35.667C37.167 32 38.367 30.8 38.367 29.3V14.7C38.367 13.2 37.167 12 35.667 12ZM24.367 25.4C23.967 25.8 23.467 26 22.967 26C22.567 26 22.267 25.9 21.867 25.7C21.467 25.5 21.167 25.3 20.967 25C21.167 25 21.367 24.9 21.667 24.7C21.867 24.5 21.967 24.3 21.967 24C21.967 23.6 22.167 23.2 22.367 22.9C22.667 22.6 23.067 22.5 23.467 22.5C23.867 22.5 24.267 22.6 24.567 22.9C24.867 23.2 24.967 23.5 24.967 24C24.967 24.6 24.767 25 24.367 25.4ZM30.367 18.5L25.867 23L24.467 21.6L28.967 17.1C29.067 17.1 29.167 17 29.267 17C29.367 17 29.567 17 29.667 17.1L30.367 17.8C30.467 17.9 30.467 18 30.467 18.2C30.467 18.3 30.467 18.4 30.367 18.5Z" fill="#181818"/>
</g>
<defs>
<clipPath id="clip0_2159_1224">
<rect width="26.7" height="24" fill="white" transform="translate(11.667 12)"/>
</clipPath>
</defs>
</svg>
